<?xml version="1.0"?>
<svg width="800" height="600" xmlns="http://www.w3.org/2000/svg" xmlns:svg="http://www.w3.org/2000/svg" version="1.1">
 <title id="title4460">jigsaw-puzzle-II</title>
 <defs id="defs4">
  <linearGradient id="linearGradient4008" x1="0.03" x2="0.71" y1="0.09" y2="0.91">
   <stop id="stop4416" offset="0" stop-color="#ff298f"/>
   <stop id="stop4418" offset="0.45" stop-color="#d51952"/>
   <stop id="stop4420" offset="1" stop-color="#b5093b"/>
  </linearGradient>
  <linearGradient id="linearGradient4027" x1="0.97" x2="0.29" y1="0.93" y2="0.29">
   <stop id="stop4432" offset="0" stop-color="#dd8509"/>
   <stop id="stop4434" offset="0.45" stop-color="#f1bd0a"/>
   <stop id="stop4436" offset="1" stop-color="#fff44d"/>
  </linearGradient>
  <linearGradient id="linearGradient4029" x1="0.97" x2="0.29" y1="0.91" y2="0.09">
   <stop id="stop4440" offset="0" stop-color="#489f03"/>
   <stop id="stop4442" offset="0.45" stop-color="#55b505"/>
   <stop id="stop4444" offset="1" stop-color="#67d308"/>
  </linearGradient>
  <filter color-interpolation-filters="sRGB" id="filter4454">
   <feGaussianBlur id="feGaussianBlur4456" stdDeviation="0.46"/>
  </filter>
 </defs>
 <metadata id="metadata51">image/svg+xmlOpenclipart</metadata>
 <g class="layer">
  <title>Layer 1</title>
  <g id="svg_1">
   <path d="m482.11,488.05l0,-67.72l-0.03,0c-0.21,-2.34 -1.57,-4.88 -3.56,-6.03c-2.17,-1.25 -4.99,-1.24 -7.16,0c-6.27,2.42 -12.6,6.27 -19.44,6.03c-10.83,0 -19.71,-8.52 -20.25,-19.22c-0.02,-0.34 0,-0.68 0,-1.03c0,-11.18 9.07,-20.25 20.25,-20.25c6.96,0 12.91,3.78 19.44,6.03c2.17,1.24 4.99,1.25 7.16,0c1.99,-1.15 3.35,-3.68 3.56,-6.03l0.03,0l0,-77.82l-67.75,0l0,0.04c-2.35,0.21 -4.88,5.63 -6.03,7.62c-1.25,2.17 -1.24,4.99 0,7.16c2.42,6.27 6.27,12.6 6.03,19.44c0,10.83 -8.52,19.71 -19.22,20.25c-0.34,0.02 -0.68,0 -1.03,0c-11.18,0 -20.25,-9.07 -20.25,-20.25c0,-6.96 3.78,-12.91 6.03,-19.44c1.24,-2.17 1.25,-4.99 0,-7.16c-1.15,-1.99 -3.68,-3.35 -6.03,-3.56l0,-0.03l-73.75,0l0,73.75l-0.03,0c-0.21,2.35 -1.57,4.88 -3.56,6.03c-2.17,1.25 -4.99,1.24 -7.16,0c-6.53,-2.25 -12.48,-6.03 -19.44,-6.03c-11.18,0 -20.25,9.07 -20.25,20.25c0,0.35 -0.02,0.69 0,1.03c0.54,10.7 9.42,19.22 20.25,19.22c6.84,0.24 13.17,-3.61 19.44,-6.03c2.17,-1.24 4.99,-1.25 7.16,0c1.99,1.15 3.35,3.69 3.56,6.03l0.03,0l0,67.72l67.75,0l0,-0.03c2.35,-0.21 4.88,-1.57 6.03,-3.56c1.25,-2.17 1.24,-4.99 0,-7.16c-2.42,-6.27 -6.27,-12.6 -6.03,-19.44c0,-10.83 8.52,-19.71 19.22,-20.25c0.34,-0.02 0.68,0 1.03,0c11.18,0 20.25,9.07 20.25,20.25c0,6.96 -3.78,12.91 -6.03,19.44c-1.24,2.17 -1.25,4.99 0,7.16c1.15,1.99 3.68,3.35 6.03,3.56l0,0.03l73.75,0z" fill="#008000" id="svg_2"/>
   <path d="m298.56,488.08l0,-67.72l-0.03,0c-0.21,-2.34 -1.57,-4.88 -3.56,-6.03c-2.17,-1.25 -0.99,-1.24 -3.16,0c-6.27,2.42 -12.6,6.27 -19.44,6.03c-10.83,0 -19.71,-8.52 -20.25,-19.22c-0.01,-0.34 0,-0.68 0,-1.03c0,-11.18 9.07,-20.25 20.25,-20.25c6.96,0 12.91,3.78 19.44,6.03c2.17,1.24 4.99,1.25 7.16,0c1.99,-1.15 3.35,-3.68 3.56,-6.03l0.03,0l0,-73.75l-73.75,0l0,-0.03c-2.35,-0.21 -4.88,-1.57 -6.03,-3.56c-1.25,-2.17 -1.24,-4.99 0,-7.16c2.25,-6.53 6.03,-12.47 6.03,-19.44c0,-11.18 -9.07,-20.25 -20.25,-20.25c-0.35,0 -0.69,-0.01 -1.03,0c-10.7,0.55 -19.22,9.42 -19.22,20.25c-0.24,6.84 3.61,13.17 6.03,19.44c1.24,2.17 1.25,4.99 0,7.16c-1.15,1.99 -3.68,3.35 -6.03,3.56l0,0.03l-67.75,0l0,73.75l-0.03,0c-0.21,2.35 -1.57,4.88 -3.56,6.03c-2.17,1.25 -4.99,1.24 -7.16,0c-6.53,-2.25 -12.48,-6.03 -19.44,-6.03c-11.18,0 -20.25,9.07 -20.25,20.25c0,0.35 -0.02,0.69 0,1.03c0.54,10.7 9.42,19.22 20.25,19.22c6.84,0.24 13.17,-3.61 19.44,-6.03c2.17,-1.24 4.99,-1.25 7.16,0c1.99,1.15 3.35,3.69 3.56,6.03l0.03,0l0,67.72l67.75,0l0,-0.03c2.35,-0.21 4.88,-1.57 6.03,-3.56c1.25,-2.17 1.24,-4.99 0,-7.16c-2.42,-6.27 -6.27,-12.6 -6.03,-19.44c0,-10.83 8.52,-19.71 19.22,-20.25c0.34,-0.02 0.68,0 1.03,0c11.18,0 20.25,9.07 20.25,20.25c0,6.96 -3.78,12.91 -6.03,19.44c-1.24,2.17 -1.25,4.99 0,7.16c1.15,1.99 3.68,3.35 6.03,3.56l0,0.03l69.75,0z" fill="#873e00" id="svg_3"/>
   <path d="m299.06,119.47l0,67.72l0.03,0c0.21,2.34 1.57,4.88 3.56,6.03c2.17,1.25 4.99,1.24 7.16,0c6.27,-2.42 12.6,-6.27 19.44,-6.03c10.83,0 19.71,8.52 20.25,19.22c0.01,0.34 0,0.68 0,1.03c0,11.18 -9.07,20.25 -20.25,20.25c-6.96,0 -12.91,-3.78 -19.44,-6.03c-2.17,-1.24 -4.99,-1.25 -7.16,0c-1.99,1.15 -3.35,3.68 -3.56,6.03l-0.03,0l0,73.75l73.75,0l0,0.03c2.35,0.21 4.88,1.57 6.03,3.56c1.25,2.17 1.24,4.99 0,7.16c-2.25,6.53 -6.03,12.47 -6.03,19.44c0,11.18 9.07,20.25 20.25,20.25c0.35,0 0.69,0.01 1.03,0c10.7,-0.55 19.22,-9.42 19.22,-20.25c0.24,-6.84 -3.61,-13.17 -6.03,-19.44c-1.24,-2.17 -1.25,-4.99 0,-7.16c1.15,-1.99 3.68,-3.35 6.03,-3.56l0,-0.03l67.75,0l0,-73.75l0.03,0c0.21,-2.35 1.57,-4.88 3.56,-6.03c2.17,-1.25 4.99,-1.24 7.16,0c6.53,2.25 12.47,6.03 19.44,6.03c11.18,0 20.25,-9.07 20.25,-20.25c0,-0.35 0.01,-0.69 0,-1.03c-0.54,-10.7 -9.42,-19.22 -20.25,-19.22c-6.84,-0.24 -13.17,3.61 -19.44,6.03c-2.17,1.24 -4.99,1.25 -7.16,0c-1.99,-1.15 -3.35,-3.69 -3.56,-6.03l-0.03,0l0,-67.72l-67.75,0l0,0.03c-2.35,0.21 -4.88,1.57 -6.03,3.56c-1.25,2.17 -1.24,4.99 0,7.16c2.42,6.27 6.27,12.6 6.03,19.44c0,10.83 -8.52,19.71 -19.22,20.25c-0.34,0.02 -0.68,0 -1.03,0c-11.18,0 -20.25,-9.07 -20.25,-20.25c0,-6.96 3.78,-12.91 6.03,-19.44c1.24,-2.17 1.25,-4.99 0,-7.16c-1.15,-1.99 -3.68,-3.35 -6.03,-3.56l0,-0.03l-73.75,0z" fill="#0e8faf" id="svg_6" stroke="#000000" stroke-width="0.4" transform="matrix(1 0 0 1 0 0)"/>
   <path d="m118.08,119.49l0,67.72l0.03,0c0.21,2.34 1.57,4.88 3.56,6.03c2.17,1.25 4.99,1.24 7.16,0c6.27,-2.42 12.6,-6.27 19.44,-6.03c10.83,0 19.71,8.52 20.25,19.22c0.02,0.34 0,0.68 0,1.03c0,11.18 -9.07,20.25 -20.25,20.25c-6.96,0 -12.91,-3.78 -19.44,-6.03c-2.17,-1.24 -4.99,-1.25 -7.16,0c-1.99,1.15 -3.35,3.68 -3.56,6.03l-0.03,0l0,73.75l67.75,0l0,-0.03c2.35,-0.21 4.88,-1.57 6.03,-3.56c1.26,-2.17 1.24,-4.99 0,-7.16c-2.42,-6.27 -6.27,-12.6 -6.03,-19.44c0,-10.83 8.52,-19.71 19.22,-20.25c0.35,-0.02 0.68,0 1.03,0c11.19,0 20.25,9.07 20.25,20.25c0,6.96 -3.77,12.91 -6.03,19.44c-1.24,2.17 -1.25,4.99 0,7.16c1.15,1.99 3.69,3.35 6.03,3.56l0,0.03l73.75,0l0,-73.75l0.03,0c0.21,-2.35 1.57,-4.88 3.57,-6.03c2.16,-1.25 4.98,-1.24 7.15,0c6.53,2.25 12.48,6.03 19.44,6.03c11.18,0 20.25,-9.07 20.25,-20.25c0,-0.35 0.02,-0.69 0,-1.03c-0.54,-10.7 -9.42,-19.22 -20.25,-19.22c-6.84,-0.24 -13.17,3.61 -19.44,6.03c-2.17,1.24 -4.99,1.25 -7.15,0c-2,-1.15 -3.36,-3.69 -3.57,-6.03l-0.03,0l0,-67.72l-67.75,0l0,0.03c-2.34,0.21 -4.88,1.57 -6.03,3.56c-1.25,2.17 -1.24,4.99 0,7.16c2.42,6.27 6.27,12.6 6.03,19.44c0,10.83 -8.52,19.71 -19.22,20.25c-0.34,0.02 -0.68,0 -1.03,0c-11.18,0 -20.25,-9.07 -20.25,-20.25c0,-6.96 3.78,-12.91 6.03,-19.44c1.24,-2.17 1.26,-4.99 0,-7.16c-1.15,-1.99 -3.68,-3.35 -6.03,-3.56l0,-0.03l-73.75,0z" fill="url(#linearGradient4008)" id="svg_7" stroke="#000000" stroke-width="0.4" transform="matrix(1 0 0 1 0 0)"/>
   <path d="m299.14,484.17l0,-67.72l-0.03,0c-0.21,-2.34 -1.57,-4.88 -3.56,-6.03c-2.17,-1.25 -4.99,-1.24 -7.16,0c-6.27,2.42 -12.6,6.27 -19.44,6.03c-10.83,0 -19.71,-8.52 -20.25,-19.22c-0.01,-0.34 0,-0.68 0,-1.03c0,-11.18 9.07,-20.25 20.25,-20.25c6.96,0 12.91,3.78 19.44,6.03c2.17,1.24 4.99,1.25 7.16,0c1.99,-1.15 3.35,-3.68 3.56,-6.03l0.03,0l0,-73.75l-73.75,0l0,-0.03c-2.35,-0.21 -4.88,-1.57 -6.03,-3.56c-1.25,-2.17 -1.24,-4.99 0,-7.16c2.25,-6.53 6.03,-12.47 6.03,-19.44c0,-11.18 -9.07,-20.25 -20.25,-20.25c-0.35,0 -0.69,-0.01 -1.03,0c-10.7,0.55 -19.22,9.42 -19.22,20.25c-0.24,6.84 3.61,13.17 6.03,19.44c1.24,2.17 1.25,4.99 0,7.16c-1.15,1.99 -3.68,3.35 -6.03,3.56l0,0.03l-67.75,0l0,73.75l-0.03,0c-0.21,2.35 -1.57,4.88 -3.56,6.03c-2.17,1.25 -4.99,1.24 -7.16,0c-6.53,-2.25 -12.47,-6.03 -19.44,-6.03c-11.18,0 -20.25,9.07 -20.25,20.25c0,0.35 -0.01,0.69 0,1.03c0.54,10.7 9.42,19.22 20.25,19.22c6.84,0.24 13.17,-3.61 19.44,-6.03c2.17,-1.24 4.99,-1.25 7.16,0c1.99,1.15 3.35,3.69 3.56,6.03l0.03,0l0,67.72l67.75,0l0,-0.03c2.35,-0.21 4.88,-1.57 6.03,-3.56c1.25,-2.17 1.24,-4.99 0,-7.16c-2.42,-6.27 -6.27,-12.6 -6.03,-19.44c0,-10.83 8.52,-19.71 19.22,-20.25c0.34,-0.02 0.68,0 1.03,0c11.18,0 20.25,9.07 20.25,20.25c0,6.96 -3.78,12.91 -6.03,19.44c-1.24,2.17 -1.25,4.99 0,7.16c1.15,1.99 3.68,3.35 6.03,3.56l0,0.03l73.75,0z" fill="url(#linearGradient4027)" id="svg_8" stroke="#ff6600" stroke-width="0.4"/>
   <path d="m481.05,484.17l0,-67.72l-0.03,0c-0.21,-2.34 -1.57,-4.88 -3.56,-6.03c-2.17,-1.25 -4.99,-1.24 -7.16,0c-6.27,2.42 -12.6,6.27 -19.44,6.03c-10.83,0 -19.71,-8.52 -20.25,-19.22c-0.02,-0.34 0,-0.68 0,-1.03c0,-11.18 9.07,-20.25 20.25,-20.25c6.96,0 12.91,3.78 19.44,6.03c2.17,1.24 4.99,1.25 7.16,0c1.99,-1.15 3.35,-3.68 3.56,-6.03l0.03,0l0,-73.75l-67.75,0l0,0.03c-2.35,0.21 -4.88,1.57 -6.03,3.56c-1.25,2.17 -1.24,4.99 0,7.16c2.42,6.27 6.27,12.6 6.03,19.44c0,10.83 -8.52,19.71 -19.22,20.25c-0.34,0.02 -0.68,0 -1.03,0c-11.18,0 -20.25,-9.07 -20.25,-20.25c0,-6.96 3.78,-12.91 6.03,-19.44c1.24,-2.17 1.25,-4.99 0,-7.16c-1.15,-1.99 -3.68,-3.35 -6.03,-3.56l0,-0.03l-73.75,0l0,73.75l-0.03,0c-0.21,2.35 -1.57,4.88 -3.56,6.03c-2.17,1.25 -4.99,1.24 -7.16,0c-6.53,-2.25 -12.48,-6.03 -19.44,-6.03c-11.18,0 -20.25,9.07 -20.25,20.25c0,0.35 -0.02,0.69 0,1.03c0.54,10.7 9.42,19.22 20.25,19.22c6.84,0.24 13.17,-3.61 19.44,-6.03c2.17,-1.24 4.99,-1.25 7.16,0c1.99,1.15 3.35,3.69 3.56,6.03l0.03,0l0,67.72l67.75,0l0,-0.03c2.35,-0.21 4.88,-1.57 6.03,-3.56c1.25,-2.17 1.24,-4.99 0,-7.16c-2.42,-6.27 -6.27,-12.6 -6.03,-19.44c0,-10.83 8.52,-19.71 19.22,-20.25c0.34,-0.02 0.68,0 1.03,0c11.18,0 20.25,9.07 20.25,20.25c0,6.96 -3.78,12.91 -6.03,19.44c-1.24,2.17 -1.25,4.99 0,7.16c1.15,1.99 3.68,3.35 6.03,3.56l0,0.03l73.75,0z" fill="url(#linearGradient4029)" id="svg_9"/>
   <path d="m299.1,120.46l0,67.72l0.03,0c0.21,2.34 1.57,4.88 3.56,6.03c1.24,0.72 2.71,1.01 4.13,0.91c-0.92,-0.12 -1.82,-0.45 -2.63,-0.91c-1.99,-1.15 -3.35,-3.69 -3.56,-6.03l-0.03,0l0,-67.72l-1.5,0z" fill="#9ec2e2" id="svg_11"/>
   <path d="m413.35,120.46l0,0.03c-2.35,0.21 -4.88,1.57 -6.03,3.56c-1.25,2.17 -1.24,4.99 0,7.16c2.42,6.27 6.27,12.6 6.03,19.44c0,10.83 -8.52,19.71 -19.22,20.25c0.16,0 0.31,0 0.47,0c0.35,0 0.69,0.02 1.03,0c10.7,-0.54 19.22,-9.42 19.22,-20.25c0.24,-6.84 -3.61,-13.17 -6.03,-19.44c-1.24,-2.17 -1.25,-4.99 0,-7.16c1.15,-1.99 3.68,-3.35 6.03,-3.56l0,-0.03l-1.5,0z" fill="#007bff" id="svg_12"/>
   <path d="m330.79,188.18c-0.36,-0.01 -0.7,0.02 -1.06,0.03c10.63,0.23 19.27,8.63 19.81,19.19c0.02,0.34 0,0.68 0,1.03c0,10.8 -8.44,19.66 -19.09,20.25c0.11,0 0.22,0 0.34,0c11.18,0 20.25,-9.07 20.25,-20.25c0,-0.35 0.02,-0.69 0,-1.03c-0.54,-10.7 -9.42,-19.22 -20.25,-19.22z" fill="#9ec2e2" filter="url(#filter4454)" id="svg_13"/>
   <path d="m511.3,188.18c-6.84,-0.24 -13.17,3.61 -19.44,6.03c-0.92,0.53 -1.94,0.83 -3,0.91c1.55,0.19 3.15,-0.13 4.5,-0.91c5.88,-2.27 11.84,-5.76 18.19,-6c-0.08,0 -0.17,-0.03 -0.25,-0.03z" fill="#007bff" id="svg_14"/>
   <path d="m306.29,221.74c-1.25,0 -2.51,0.28 -3.59,0.91c-1.99,1.15 -3.36,3.68 -3.57,6.03l-0.03,0l0,73.75l1.5,0l0,-73.75l0.03,0c0.21,-2.35 1.58,-4.88 3.57,-6.03c0.81,-0.47 1.73,-0.76 2.65,-0.88c-0.18,-0.01 -0.37,-0.03 -0.56,-0.03z" fill="#ffffff" fill-opacity="0.59" id="svg_15"/>
   <path d="m489.8,221.74c-0.19,0 -0.38,0.02 -0.56,0.03c0.93,0.12 1.81,0.41 2.62,0.88c6.53,2.25 12.48,6.03 19.44,6.03c0.35,0 0.72,0.01 1.06,0c-6.77,-0.16 -12.61,-3.83 -19,-6.03c-1.08,-0.62 -2.31,-0.91 -3.56,-0.91z" fill="#007bff" id="svg_16"/>
   <path d="m372.85,302.43l0,0.03c2.35,0.21 4.88,1.57 6.03,3.56c1.25,2.17 1.24,4.99 0,7.16c-2.25,6.53 -6.03,12.48 -6.03,19.44c0,11.18 9.07,20.25 20.25,20.25c0.16,0 0.31,0 0.47,0c-10.7,-0.54 -19.22,-9.42 -19.22,-20.25c0,-6.96 3.78,-12.91 6.03,-19.44c1.24,-2.17 1.25,-4.99 0,-7.16c-1.15,-1.99 -3.68,-3.35 -6.03,-3.56l0,-0.03l-1.5,0z" fill="#004000" id="svg_17"/>
   <path d="m299.36,302.18l0,73.75l-0.03,0c-0.21,2.35 -1.57,4.88 -3.56,6.03c-0.8,0.46 -1.66,0.75 -2.57,0.88c1.57,0.21 3.2,-0.09 4.57,-0.88c1.99,-1.15 3.35,-3.68 3.56,-6.03l0.03,0l0,-73.75l-2,0zm114.25,0l0,0.03c-2.35,0.21 -4.88,1.57 -6.03,3.56c-1.25,2.17 -1.24,4.99 0,7.16c2.42,6.27 6.27,12.6 6.03,19.44c0,10.83 -8.52,19.71 -19.22,20.25c0.33,0.01 0.64,0 0.97,0c0.35,0 0.69,0.01 1.03,0c10.7,-0.54 19.22,-9.42 19.22,-20.25c0.24,-6.84 -3.61,-13.17 -6.03,-19.44c-1.24,-2.17 -1.25,-4.99 0,-7.16c1.15,-1.99 3.68,-3.35 6.03,-3.56l0,-0.03l-2,0zm-144.44,73.75c-11.18,0 -20.25,9.07 -20.25,20.25c0,0.35 -0.02,0.69 0,1.03c0.54,10.7 9.42,19.22 20.25,19.22c0.52,0.02 1.05,0 1.56,-0.03c-10.63,-0.23 -19.28,-8.64 -19.81,-19.19c-0.02,-0.34 0,-0.68 0,-1.03c0,-10.8 8.47,-19.63 19.13,-20.22c-0.29,-0.01 -0.59,-0.03 -0.88,-0.03zm184,0c-0.35,0 -0.69,0.01 -1.03,0.03c6.55,0.32 12.24,3.85 18.47,6c1.37,0.79 3.03,1.09 4.59,0.88c-0.9,-0.13 -1.8,-0.42 -2.59,-0.88c-6.53,-2.25 -12.48,-6.03 -19.44,-6.03zm-158.97,33.53c-0.33,0 -0.67,0.02 -1,0.06c0.91,0.12 1.77,0.42 2.56,0.88c1.99,1.15 3.36,3.68 3.57,6.03l0.03,0l0,67.72l2,0l0,-67.72l-0.03,0c-0.21,-2.35 -1.58,-4.88 -3.57,-6.03c-1.08,-0.63 -2.31,-0.94 -3.56,-0.94zm180,0c-1.25,0 -2.51,0.32 -3.59,0.94c-5.8,2.23 -11.63,5.67 -17.88,6c0.15,0 0.29,0.03 0.44,0.03c6.84,0.24 13.16,-3.61 19.44,-6.03c0.79,-0.46 1.68,-0.75 2.59,-0.88c-0.33,-0.04 -0.67,-0.06 -1,-0.06zm-85.87,24.25c-0.07,0 -0.13,0.03 -0.19,0.03c10.83,0.4 19.47,9.29 19.47,20.22c0,6.96 -3.78,12.91 -6.03,19.44c-1.25,2.17 -1.26,4.99 0,7.15c1.15,1.99 3.68,3.36 6.03,3.57l0,0.03l2,0l0,-0.03c-2.35,-0.21 -4.88,-1.58 -6.03,-3.57c-1.26,-2.16 -1.25,-4.98 0,-7.15c2.25,-6.53 6.03,-12.48 6.03,-19.44c0,-11.18 -9.07,-20.25 -20.25,-20.25c-0.35,0 -0.69,-0.02 -1.03,0z" fill="#ffffff" fill-opacity="0.48" id="svg_18"/>
   <path d="m204.18,251.79c10.69,0.56 19.16,9.43 19.16,20.25c0,6.96 -3.78,12.91 -6.04,19.44c-1.24,2.17 -1.25,4.99 0,7.15c1.16,1.99 3.69,3.36 6.04,3.57l0,0.03l2.12,0l0,-0.03c-2.34,-0.21 -4.88,-1.58 -6.03,-3.57c-1.25,-2.16 -1.24,-4.98 0,-7.15c2.26,-6.53 6.03,-12.48 6.03,-19.44c0,-11.18 -9.07,-20.25 -20.25,-20.25c-0.35,0 -0.69,-0.02 -1.03,0zm92.91,50.44l0,73.75l-0.04,0c-0.21,2.34 -1.57,4.88 -3.56,6.03c-0.77,0.45 -1.62,0.72 -2.5,0.84c1.59,0.23 3.24,-0.04 4.63,-0.84c1.99,-1.15 3.35,-3.69 3.56,-6.03l0.03,0l0,-73.75l-2.12,0zm-211.09,73.75c-0.08,0 -0.15,0.02 -0.22,0.03c6.59,0.29 12.3,3.84 18.56,6c1.39,0.8 3.07,1.07 4.66,0.84c-0.89,-0.12 -1.76,-0.4 -2.54,-0.84c-6.52,-2.26 -12.47,-6.03 -19.43,-6.03c-0.35,0 -0.69,-0.02 -1.03,0zm179.88,0c-10.7,0.54 -19.22,9.41 -19.22,20.25c0,0.35 -0.02,0.68 0,1.03c0.54,10.7 9.41,19.22 20.25,19.22c0.55,0.02 1.11,0 1.65,-0.03c-10.61,-0.25 -19.24,-8.65 -19.78,-19.19c-0.01,-0.35 0,-0.68 0,-1.03c0,-10.76 8.41,-19.57 19,-20.22c-0.28,-0.01 -0.58,-0.03 -0.87,-0.03c-0.35,0 -0.69,-0.02 -1.03,0zm-157.94,33.53c-1.25,0 -2.51,0.32 -3.6,0.94c-5.76,2.22 -11.57,5.64 -17.78,6c0.16,0 0.31,0.03 0.47,0.03c6.84,0.23 13.17,-3.61 19.44,-6.03c0.79,-0.46 1.69,-0.76 2.59,-0.88c-0.37,-0.05 -0.75,-0.06 -1.12,-0.06zm184.12,0c-0.34,0 -0.67,0.02 -1,0.06c0.86,0.13 1.68,0.44 2.43,0.88c1.99,1.15 3.36,3.68 3.57,6.03l0.03,0l0,67.72l2.12,0l0,-67.72l-0.03,0c-0.21,-2.35 -1.57,-4.88 -3.56,-6.03c-1.08,-0.63 -2.32,-0.94 -3.56,-0.94zm-90,24.25c-10.7,0.54 -19.22,9.41 -19.22,20.25c-0.24,6.84 3.61,13.17 6.03,19.44c1.24,2.17 1.25,4.99 0,7.15c-1.15,1.99 -3.69,3.36 -6.03,3.57l0,0.03l2.12,0l0,-0.03c2.35,-0.21 4.88,-1.58 6.03,-3.57c1.26,-2.16 1.25,-4.98 0,-7.15c-2.42,-6.27 -6.26,-12.6 -6.03,-19.44c0,-10.82 8.5,-19.69 19.19,-20.25c-0.35,-0.02 -0.71,0 -1.06,0c-0.35,0 -0.69,-0.02 -1.03,0z" fill="#bb6a00" id="svg_19"/>
   <path d="m301.14,504.17l0,-67.72l-0.03,0c-0.21,-2.34 -1.57,-4.88 -3.56,-6.03c-2.17,-1.25 -4.99,-1.24 -7.16,0c-6.27,2.42 -12.6,6.27 -19.44,6.03c-10.83,0 -19.71,-8.52 -20.25,-19.22c-0.01,-0.34 0,-0.68 0,-1.03c0,-11.18 9.07,-20.25 20.25,-20.25c6.96,0 12.91,3.78 19.44,6.03c2.17,1.24 4.99,1.25 7.16,0c1.99,-1.15 3.35,-3.68 3.56,-6.03l0.03,0l0,-73.75l-73.75,0l0,-0.03c-2.35,-0.21 -4.88,-1.57 -6.03,-3.56c-1.25,-2.17 -1.24,-4.99 0,-7.16c2.25,-6.53 6.03,-12.47 6.03,-19.44c0,-11.18 -9.07,-20.25 -20.25,-20.25c-0.35,0 -0.69,-0.01 -1.03,0c-10.7,0.55 -19.22,9.42 -19.22,20.25c-0.24,6.84 3.61,13.17 6.03,19.44c1.24,2.17 1.25,4.99 0,7.16c-1.15,1.99 -3.68,3.35 -6.03,3.56l0,0.03l-67.75,0l0,73.75l-0.03,0c-0.21,2.35 -1.57,4.88 -3.56,6.03c-2.17,1.25 -4.99,1.24 -7.16,0c-6.53,-2.25 -12.47,-6.03 -19.44,-6.03c-11.18,0 -20.25,9.07 -20.25,20.25c0,0.35 -0.01,0.69 0,1.03c0.54,10.7 9.42,19.22 20.25,19.22c6.84,0.24 13.17,-3.61 19.44,-6.03c2.17,-1.24 4.99,-1.25 7.16,0c1.99,1.15 3.35,3.69 3.56,6.03l0.03,0l0,67.72l67.75,0l0,-0.03c2.35,-0.21 4.88,-1.57 6.03,-3.56c1.25,-2.17 1.24,-4.99 0,-7.16c-2.42,-6.27 -6.27,-12.6 -6.03,-19.44c0,-10.83 8.52,-19.71 19.22,-20.25c0.34,-0.02 0.68,0 1.03,0c11.18,0 20.25,9.07 20.25,20.25c0,6.96 -3.78,12.91 -6.03,19.44c-1.24,2.17 -1.25,4.99 0,7.16c1.15,1.99 3.68,3.35 6.03,3.56l0,0.03l73.75,0z" fill="none" id="svg_22" transform="matrix(1 0 0 1 0 0)">GProg</path>
   <path d="m480.92,484.17l0,-67.72l-0.03,0c-0.21,-2.34 -1.57,-4.88 -3.56,-6.03c-2.17,-1.25 -4.99,-1.24 -7.16,0c-6.27,2.42 -12.6,6.27 -19.44,6.03c-10.83,0 -19.71,-8.52 -20.25,-19.22c-0.02,-0.34 0,-0.68 0,-1.03c0,-11.18 9.07,-20.25 20.25,-20.25c6.96,0 12.91,3.78 19.44,6.03c2.17,1.24 4.99,1.25 7.16,0c1.99,-1.15 3.35,-3.68 3.56,-6.03l0.03,0l0,-73.75l-67.75,0l0,0.03c-2.35,0.21 -4.88,1.57 -6.03,3.56c-1.25,2.17 -1.24,4.99 0,7.16c2.42,6.27 6.27,12.6 6.03,19.44c0,10.83 -8.52,19.71 -19.22,20.25c-0.34,0.02 -0.68,0 -1.03,0c-11.18,0 -20.25,-9.07 -20.25,-20.25c0,-6.96 3.78,-12.91 6.03,-19.44c1.24,-2.17 1.25,-4.99 0,-7.16c-1.15,-1.99 -3.68,-3.35 -6.03,-3.56l0,-0.03l-73.75,0l0,73.75l-0.03,0c-0.21,2.35 -1.57,4.88 -3.56,6.03c-2.17,1.25 -4.99,1.24 -7.16,0c-6.53,-2.25 -12.48,-6.03 -19.44,-6.03c-11.18,0 -20.25,9.07 -20.25,20.25c0,0.35 -0.02,0.69 0,1.03c0.54,10.7 9.42,19.22 20.25,19.22c6.84,0.24 13.17,-3.61 19.44,-6.03c2.17,-1.24 4.99,-1.25 7.16,0c1.99,1.15 3.35,3.69 3.56,6.03l0.03,0l0,67.72l67.75,0l0,-0.03c2.35,-0.21 4.88,-1.57 6.03,-3.56c1.25,-2.17 1.24,-4.99 0,-7.16c-2.42,-6.27 -6.27,-12.6 -6.03,-19.44c0,-10.83 8.52,-19.71 19.22,-20.25c0.34,-0.02 0.68,0 1.03,0c11.18,0 20.25,9.07 20.25,20.25c0,6.96 -3.78,12.91 -6.03,19.44c-1.24,2.17 -1.25,4.99 0,7.16c1.15,1.99 3.68,3.35 6.03,3.56l0,0.03l73.75,0z" fill="none" id="svg_23" stroke="#000000" stroke-width="0.4" transform="matrix(1 0 0 1 0 0)"/>
   <path d="m478.7,301.96l0,73.75l-0.03,0c-0.21,2.35 -1.57,4.88 -3.56,6.03c-0.78,0.45 -1.65,0.72 -2.53,0.84c1.58,0.23 3.23,-0.03 4.62,-0.84c1.99,-1.15 3.35,-3.68 3.56,-6.03l0.03,0l0,-73.75l-2.09,0zm-30.19,73.75c-11.18,0 -20.25,9.07 -20.25,20.25c0,0.35 -0.01,0.69 0,1.03c0.54,10.7 9.42,19.22 20.25,19.22c0.54,0.02 1.06,0 1.6,-0.03c-10.61,-0.26 -19.22,-8.66 -19.75,-19.19c-0.02,-0.34 0,-0.68 0,-1.03c0,-10.78 8.43,-19.6 19.06,-20.22c-0.31,-0.01 -0.6,-0.03 -0.91,-0.03zm25.13,33.53c-0.36,0 -0.71,0.04 -1.07,0.09c0.89,0.13 1.76,0.4 2.54,0.85c1.99,1.15 3.35,3.68 3.56,6.03l0.03,0l0,67.72l2.09,0l0,-67.72l-0.03,0c-0.21,-2.35 -1.57,-4.88 -3.56,-6.03c-1.08,-0.63 -2.32,-0.94 -3.56,-0.94z" fill="#008000" id="svg_24"/>
   <path d="m477.9,120.22l0,67.72l0.03,0c0.21,2.34 1.57,4.88 3.56,6.03c1.52,0.88 3.36,1.13 5.07,0.78c-0.72,-0.15 -1.43,-0.41 -2.07,-0.78c-1.99,-1.15 -3.35,-3.69 -3.56,-6.03l-0.03,0l0,-67.72l-3,0zm33.19,67.72c-0.66,-0.02 -1.29,0.01 -1.94,0.06c10.35,0.53 18.66,8.81 19.19,19.16c0.02,0.34 0,0.68 0,1.03c0,10.66 -8.23,19.43 -18.69,20.22c0.48,0.03 0.95,0.03 1.44,0.03c11.18,0 20.25,-9.07 20.25,-20.25c0,-0.35 0.02,-0.69 0,-1.03c-0.54,-10.7 -9.42,-19.22 -20.25,-19.22zm-26,33.56c-1.25,0 -2.51,0.28 -3.6,0.91c-1.99,1.15 -3.35,3.68 -3.56,6.03l-0.03,0l0,73.75l3,0l0,-73.75l0.03,0c0.21,-2.35 1.57,-4.88 3.56,-6.03c0.65,-0.38 1.37,-0.6 2.1,-0.75c-0.5,-0.11 -1,-0.16 -1.5,-0.16z" fill="#000080" fill-opacity="0.44" id="svg_25"/>
   <path d="m482.57,121.33l0,67.72l0.03,0c0.21,2.34 1.57,4.88 3.56,6.03c2.17,1.25 4.99,1.24 7.16,0c6.27,-2.42 12.6,-6.27 19.44,-6.03c10.83,0 19.71,8.52 20.25,19.22c0.01,0.34 0,0.68 0,1.03c0,11.18 -9.07,20.25 -20.25,20.25c-6.96,0 -12.91,-3.78 -19.44,-6.03c-2.17,-1.24 -4.99,-1.25 -7.16,0c-1.99,1.15 -3.35,3.68 -3.56,6.03l-0.03,0l0,73.75l73.75,0l0,0.03c2.35,0.21 4.88,1.57 6.03,3.56c1.25,2.17 1.24,4.99 0,7.16c-2.25,6.53 -6.03,12.47 -6.03,19.44c0,11.18 9.07,20.25 20.25,20.25c0.35,0 0.69,0.01 1.03,0c10.7,-0.55 19.22,-9.42 19.22,-20.25c0.24,-6.84 -3.61,-13.17 -6.03,-19.44c-1.24,-2.17 -1.25,-4.99 0,-7.16c1.15,-1.99 3.68,-3.35 6.03,-3.56l0,-0.03l67.75,0l0,-73.75l0.03,0c0.21,-2.35 1.57,-4.88 3.56,-6.03c2.17,-1.25 4.99,-1.24 7.16,0c6.53,2.25 12.47,6.03 19.44,6.03c11.18,0 20.25,-9.07 20.25,-20.25c0,-0.35 0.01,-0.69 0,-1.03c-0.54,-10.7 -9.42,-19.22 -20.25,-19.22c-6.84,-0.24 -13.17,3.61 -19.44,6.03c-2.17,1.24 -4.99,1.25 -7.16,0c-1.99,-1.15 -3.35,-3.69 -3.56,-6.03l-0.03,0l0,-67.72l-67.75,0l0,0.03c-2.35,0.21 -4.88,1.57 -6.03,3.56c-1.25,2.17 -1.24,4.99 0,7.16c2.42,6.27 6.27,12.6 6.03,19.44c0,10.83 -8.52,19.71 -19.22,20.25c-0.34,0.02 -0.68,0 -1.03,0c-11.18,0 -20.25,-9.07 -20.25,-20.25c0,-6.96 3.78,-12.91 6.03,-19.44c1.24,-2.17 1.25,-4.99 0,-7.16c-1.15,-1.99 -3.68,-3.35 -6.03,-3.56l0,-0.03l-73.75,0z" fill="#ff5656" id="svg_37" stroke="#000000" stroke-width="0.4"/>
   <path d="m664.43,487.03l0,-67.72l-0.03,0c-0.21,-2.34 -1.57,-4.88 -3.56,-6.03c-2.17,-1.25 -4.99,-1.24 -7.16,0c-6.27,2.42 -12.6,6.27 -19.44,6.03c-10.83,0 -19.71,-8.52 -20.25,-19.22c-0.02,-0.34 0,-0.68 0,-1.03c0,-11.18 9.07,-20.25 20.25,-20.25c6.96,0 12.91,3.78 19.44,6.03c2.17,1.24 4.99,1.25 7.16,0c1.99,-1.15 3.35,-3.68 3.56,-6.03l0.03,0l0,-73.75l-67.75,0l0,0.03c-2.35,0.21 -4.88,1.57 -6.03,3.56c-1.25,2.17 -1.24,4.99 0,7.16c2.42,6.27 6.27,12.6 6.03,19.44c0,10.83 -8.52,19.71 -19.22,20.25c-0.34,0.02 -0.68,0 -1.03,0c-11.18,0 -20.25,-9.07 -20.25,-20.25c0,-6.96 3.78,-12.91 6.03,-19.44c1.24,-2.17 1.25,-4.99 0,-7.16c-1.15,-1.99 -3.68,-3.35 -6.03,-3.56l0,-0.03l-73.75,0l0,73.75l-0.03,0c-0.21,2.35 -1.57,4.88 -3.56,6.03c-2.17,1.25 -4.99,1.24 -7.16,0c-6.53,-2.25 -12.48,-6.03 -19.44,-6.03c-11.18,0 -20.25,9.07 -20.25,20.25c0,0.35 -0.02,0.69 0,1.03c0.54,10.7 9.42,19.22 20.25,19.22c6.84,0.24 13.17,-3.61 19.44,-6.03c2.17,-1.24 4.99,-1.25 7.16,0c1.99,1.15 3.35,3.69 3.56,6.03l0.03,0l0,67.72l67.75,0l0,-0.03c2.35,-0.21 4.88,-1.57 6.03,-3.56c1.25,-2.17 1.24,-4.99 0,-7.16c-2.42,-6.27 -6.27,-12.6 -6.03,-19.44c0,-10.83 8.52,-19.71 19.22,-20.25c0.34,-0.02 0.68,0 1.03,0c11.18,0 20.25,9.07 20.25,20.25c0,6.96 -3.78,12.91 -6.03,19.44c-1.24,2.17 -1.25,4.99 0,7.16c1.15,1.99 3.68,3.35 6.03,3.56l0,0.03l73.75,0z" fill="#d4aaff" id="svg_29" stroke="#000000" stroke-width="0.4"/>
   <text fill="#000000" font-family="Serif" font-size="24" id="svg_43" stroke="#000000" stroke-dasharray="null" stroke-linecap="null" stroke-linejoin="null" stroke-opacity="null" stroke-width="0" text-anchor="middle" x="194" xml:space="preserve" y="195"/>
   <text fill="#000000" font-family="Serif" font-size="24" font-weight="bold" id="svg_45" stroke="#000000" stroke-dasharray="null" stroke-linecap="null" stroke-linejoin="null" stroke-width="0" text-anchor="middle" transform="matrix(1 0 0 1 0 0)" x="226" xml:space="preserve" y="223">3DVC</text>
   <text fill="#000000" font-family="Serif" font-size="24" font-weight="bold" id="svg_46" stroke="#000000" stroke-dasharray="null" stroke-linecap="null" stroke-linejoin="null" stroke-width="0" text-anchor="middle" transform="matrix(1 0 0 1 0 0)" x="181" xml:space="preserve" y="400">GProg</text>
   <text fill="#000000" font-family="Serif" font-size="24" font-weight="bold" id="svg_47" stroke="#000000" stroke-dasharray="null" stroke-linecap="null" stroke-linejoin="null" stroke-width="0" text-anchor="middle" x="370.5" xml:space="preserve" y="399">VProg</text>
   <text fill="#000000" font-family="Serif" font-size="24" font-weight="bold" id="svg_49" stroke="#000000" stroke-dasharray="null" stroke-linecap="null" stroke-linejoin="null" stroke-opacity="null" stroke-width="0" text-anchor="middle" transform="matrix(1 0 0 1 0 0)" x="400" xml:space="preserve" y="224">CoG</text>
   <text fill="#000000" font-family="Serif" font-size="24" font-weight="bold" id="svg_50" stroke="#000000" stroke-dasharray="null" stroke-linecap="null" stroke-linejoin="null" stroke-width="0" text-anchor="middle" x="583" xml:space="preserve" y="259">3DGP</text>
   <text fill="#000000" font-family="Serif" font-size="24" font-weight="bold" id="svg_51" stroke="#000000" stroke-dasharray="null" stroke-linecap="null" stroke-linejoin="null" stroke-width="0" text-anchor="middle" transform="matrix(1 0 0 1 0 0)" x="582.5" xml:space="preserve" y="222">2DGP</text>
   <text fill="#000000" font-family="Serif" font-size="24" font-weight="bold" id="svg_52" stroke="#000000" stroke-dasharray="null" stroke-linecap="null" stroke-linejoin="null" stroke-width="0" style="cursor: move;" text-anchor="middle" x="557.5" xml:space="preserve" y="399">IVW</text>
  </g>
 </g>
</svg>